# xmcd
#
# Track frame offsets: 
#        150
#        16711
#        37910
#        54457
#
# Disc length: 1008 seconds
#
# Revision: 4
# Processed by: cddbd v1.5.2PL0 Copyright (c) Steve Scherf et al.
# Submitted via: ExactAudioCopyFreeDBPlugin 1.0
#
DISCID=2103ee04
DTITLE=板野友美 - Dear J(s) (Disc1)
DYEAR=2011
DGENRE=JPop
TTITLE0=Dear J
TTITLE1=TUNNEL
TTITLE2=Dear J [Off Vocal Ver．]
TTITLE3=TUNNEL [Off Vocal Ver．]
EXTD=YEAR: 2011
EXTT0=
EXTT1=
EXTT2=
EXTT3=
PLAYORDER=
